<?xml version="1.0" encoding="iso-8859-1"?>
<!-- Generator: Adobe Illustrator 19.0.0, SVG Export Plug-In . SVG Version: 6.00 Build 0)  -->
<svg version="1.1" id="Layer_1" xmlns="http://www.w3.org/2000/svg" xmlns:xlink="http://www.w3.org/1999/xlink" x="0px" y="0px"
	 viewBox="0 0 512 512" style="enable-background:new 0 0 512 512;" xml:space="preserve">
<path style="fill:#365F2C;" d="M509.588,220.851C492.455,96.1,385.459,0,256,0C114.616,0,0,114.616,0,256
	c0,122.259,85.71,224.484,200.317,249.908L509.588,220.851z"/>
<path style="fill:#193D2F;" d="M512,256c0-11.926-0.835-23.656-2.413-35.149l-96.973-96.973L79.842,385.434l120.476,120.476
	C218.246,509.885,236.875,512,256,512C397.384,512,512,397.384,512,256z"/>
<path style="fill:#FC870B;" d="M233.739,365.078L256,398.47h144.696c16.476,0,30.851-8.958,38.55-22.261L233.739,365.078z"/>
<g>
	<path style="fill:#FDA409;" d="M439.246,376.209c3.791-6.55,5.971-14.149,5.971-22.261v-22.261H233.739L256,376.209H439.246z"/>
	<path style="fill:#FDA409;" d="M72.754,376.209c7.699,13.303,22.074,22.261,38.55,22.261H256v-33.391L72.754,376.209z"/>
</g>
<path style="fill:#FFC207;" d="M256,331.687H66.783v22.261c0,8.112,2.18,15.711,5.971,22.261H256V331.687z"/>
<polygon style="fill:#44702A;" points="445.217,235.965 244.87,247.096 256,213.704 445.217,213.704 "/>
<polygon style="fill:#81982D;" points="256,247.096 66.783,235.965 66.783,213.704 256,213.704 "/>
<polygon style="fill:#F72E12;" points="445.217,269.357 244.87,280.487 256,235.965 445.217,235.965 "/>
<polygon style="fill:#F8513A;" points="256,280.487 66.783,269.357 66.783,235.965 256,235.965 "/>
<path style="fill:#81982D;" d="M275.478,180.313c0,30.736,24.917,55.652,55.652,55.652c14.48,0,27.665-5.534,37.565-14.596
	c9.9,9.062,23.086,14.596,37.565,14.596c22.819,0,42.419-13.739,51.009-33.391h-12.052L275.478,180.313z"/>
<path style="fill:#A0AD2F;" d="M233.739,180.313L256,235.965c30.736,0,55.652-24.917,55.652-55.652H233.739z"/>
<path style="fill:#BEC130;" d="M54.732,202.574c8.589,19.652,28.189,33.391,51.009,33.391c14.48,0,27.665-5.534,37.565-14.596
	c9.899,9.062,23.085,14.596,37.564,14.596s27.665-5.534,37.565-14.596c9.901,9.062,23.086,14.596,37.565,14.596v-55.652
	L66.783,202.574H54.732z"/>
<path style="fill:#FC870B;" d="M407.759,119.305l-174.02,5.356L256,202.574h189.217
	C445.217,169.441,430.733,139.694,407.759,119.305z"/>
<path style="fill:#FDA409;" d="M104.241,119.305c-22.975,20.389-37.458,50.136-37.458,83.269H256v-66.783L104.241,119.305z"/>
<path style="fill:#FA690E;" d="M333.913,91.27l-11.13,11.13l-11.13-11.13H267.13l-33.391,22.261L256,135.791h100.174
	c19.235,0,37.028-6.118,51.585-16.488C388.109,101.866,362.251,91.27,333.913,91.27z"/>
<path style="fill:#FC870B;" d="M244.87,91.27h-44.522l-11.13,11.13l-11.13-11.13c-28.338,0-54.197,10.596-73.846,28.035
	c14.556,10.368,32.351,16.486,51.585,16.486H256V113.53L244.87,91.27z"/>
<rect x="278.261" y="135.791" style="fill:#FFE376;" width="22.261" height="22.261"/>
<rect x="211.478" y="135.791" style="fill:#FFF3AD;" width="22.261" height="22.261"/>
<g>
	<rect x="311.652" y="91.27" style="fill:#FFE376;" width="22.261" height="22.261"/>
	<rect x="244.87" y="91.27" style="fill:#FFE376;" width="22.261" height="22.261"/>
</g>
<rect x="178.087" y="91.27" style="fill:#FFF3AD;" width="22.261" height="22.261"/>
<path style="fill:#63842C;" d="M428.522,287.165H256l-22.261,33.391L256,353.948h128l11.13-11.13l11.13,11.13h22.261
	c18.442,0,33.391-14.95,33.391-33.391C461.913,302.116,446.964,287.165,428.522,287.165z"/>
<path style="fill:#81982D;" d="M83.478,287.165c-18.442,0-33.391,14.95-33.391,33.391c0,18.441,14.949,33.391,33.391,33.391h83.478
	l11.13-11.13l11.13,11.13H256v-66.783H83.478z"/>
<rect x="105.739" y="309.426" style="fill:#63842C;" width="22.261" height="22.261"/>
<rect x="166.957" y="331.687" style="fill:#44702A;" width="22.261" height="22.261"/>
<rect x="211.478" y="309.426" style="fill:#63842C;" width="22.261" height="22.261"/>
<rect x="384" y="331.687" style="fill:#365F2C;" width="22.261" height="22.261"/>
<rect x="317.217" y="309.426" style="fill:#44702A;" width="22.261" height="22.261"/>
<path style="fill:#FDA409;" d="M445.217,269.357v22.279c-47.302,0-47.302,22.243-94.604,22.243
	c-47.303,0-47.303-22.261-94.608-22.261c-0.006,0-11.136-11.13-11.136-11.13l11.13-11.13H445.217z"/>
<path style="fill:#FFD23E;" d="M66.783,269.357v22.279c47.302,0,47.302,22.243,94.604,22.243c47.303,0,47.303-22.261,94.608-22.261
	c0.006,0,0.006-22.261,0.006-22.261H66.783z"/>
<g>
</g>
<g>
</g>
<g>
</g>
<g>
</g>
<g>
</g>
<g>
</g>
<g>
</g>
<g>
</g>
<g>
</g>
<g>
</g>
<g>
</g>
<g>
</g>
<g>
</g>
<g>
</g>
<g>
</g>
</svg>
