<?xml version="1.0" standalone="no"?>
<!DOCTYPE svg PUBLIC "-//W3C//DTD SVG 20010904//EN"
 "http://www.w3.org/TR/2001/REC-SVG-20010904/DTD/svg10.dtd">
<svg version="1.0" xmlns="http://www.w3.org/2000/svg"
 width="1280.000000pt" height="1124.000000pt" viewBox="0 0 1280.000000 1124.000000"
 preserveAspectRatio="xMidYMid meet">
<metadata>
Created by potrace 1.15, written by Peter Selinger 2001-2017
</metadata>
<g transform="translate(0.000000,1124.000000) scale(0.100000,-0.100000)"
fill="#9c27b0" stroke="none">
<path d="M6 11231 c-11 -17 -3 -25 112 -104 59 -41 181 -136 272 -212 183
-152 333 -257 442 -309 40 -19 154 -61 253 -94 99 -33 302 -108 450 -167 345
-138 392 -154 670 -226 367 -95 567 -161 915 -299 230 -92 226 -90 450 -135
204 -41 232 -50 404 -122 71 -29 199 -76 285 -104 243 -78 246 -80 246 -114 0
-88 -157 -60 -549 97 -248 99 -287 109 -416 115 -82 4 -136 1 -187 -10 -245
-52 -451 -214 -563 -442 -102 -207 -106 -399 -11 -590 131 -264 468 -470 845
-516 171 -21 311 4 470 83 269 135 512 157 576 54 27 -44 27 -166 -1 -618 -39
-633 -18 -866 135 -1504 25 -105 46 -206 46 -225 0 -65 21 -154 46 -191 14
-22 44 -48 72 -62 45 -23 49 -28 84 -117 20 -52 51 -141 70 -199 32 -102 33
-110 33 -275 0 -93 -4 -300 -9 -460 -12 -419 8 -766 70 -1187 14 -95 27 -231
31 -303 9 -210 -22 -292 -200 -533 -123 -166 -181 -260 -267 -431 -76 -153
-143 -260 -313 -501 -72 -102 -150 -213 -174 -247 -35 -49 -61 -73 -131 -116
-92 -57 -407 -235 -632 -357 -74 -41 -165 -93 -202 -117 -91 -57 -213 -117
-268 -131 -25 -6 -74 -13 -109 -16 -67 -6 -101 -25 -101 -56 0 -27 27 -44 89
-52 31 -5 360 -13 731 -18 566 -8 696 -12 805 -28 150 -21 199 -16 232 23 29
33 30 81 2 171 -42 135 -14 231 106 360 47 50 54 54 95 54 25 0 106 -21 195
-50 185 -60 271 -75 352 -61 126 24 213 90 391 296 209 244 310 404 556 883
204 397 289 547 440 777 248 377 494 688 895 1134 417 464 506 598 773 1159
89 187 275 420 375 471 24 12 61 21 87 21 38 0 52 -6 89 -38 90 -78 188 -196
225 -271 l37 -74 0 -196 c1 -188 2 -199 29 -276 76 -215 277 -536 461 -737 77
-85 132 -176 319 -540 70 -134 156 -283 212 -365 190 -279 211 -319 330 -633
115 -302 239 -542 368 -713 83 -112 312 -373 376 -430 91 -82 193 -133 301
-151 47 -8 56 -20 76 -98 9 -34 42 -130 73 -213 32 -82 65 -186 74 -230 9 -44
25 -128 36 -187 25 -133 63 -254 92 -298 17 -25 39 -38 88 -55 36 -12 108 -44
160 -71 l95 -49 155 3 c109 2 161 7 176 17 13 8 27 37 37 72 35 124 18 170
-92 246 -136 96 -201 187 -321 447 -48 105 -99 198 -126 234 -70 90 -94 148
-94 231 0 81 24 143 84 214 71 85 71 77 -16 266 -118 254 -188 447 -348 963
-56 180 -103 285 -192 427 -175 278 -254 474 -433 1075 -154 519 -211 663
-332 843 -80 119 -99 177 -149 457 -68 382 -122 578 -241 880 -251 638 -642
1234 -1104 1685 -281 274 -557 453 -799 520 -101 27 -115 38 -187 148 -222
335 -620 595 -1243 811 -373 130 -723 216 -1620 400 -569 117 -741 158 -981
235 -265 85 -591 163 -837 201 -146 22 -257 33 -537 55 -364 28 -410 37 -975
192 -641 175 -845 220 -1052 232 l-137 8 -143 71 c-79 39 -188 96 -242 126
-110 61 -237 106 -396 142 -130 29 -254 41 -264 25z m5974 -4298 c101 -36 110
-37 240 -38 96 0 179 7 289 24 135 22 162 23 230 14 88 -13 306 -88 332 -114
16 -16 18 -30 13 -111 -8 -121 13 -244 63 -363 35 -85 37 -96 37 -200 0 -129
-18 -227 -76 -405 -72 -221 -162 -416 -299 -646 -95 -160 -127 -233 -215 -487
-80 -232 -121 -314 -195 -387 -53 -52 -57 -60 -73 -135 -82 -391 -344 -906
-590 -1164 -66 -68 -106 -94 -130 -85 -14 5 -16 33 -16 193 0 343 22 580 84
926 52 287 60 386 53 644 -8 288 -33 527 -108 1014 l-30 198 25 43 c14 23 32
49 41 56 21 18 55 84 55 108 0 10 -12 52 -26 93 -32 91 -41 179 -24 250 7 30
41 115 75 189 86 187 89 197 81 306 -6 82 -4 94 11 103 27 16 39 14 153 -26z"/>
</g>
</svg>
