<?xml version="1.0" standalone="no"?>
<!DOCTYPE svg PUBLIC "-//W3C//DTD SVG 20010904//EN"
 "http://www.w3.org/TR/2001/REC-SVG-20010904/DTD/svg10.dtd">
<svg version="1.0" xmlns="http://www.w3.org/2000/svg"
 width="1280.000000pt" height="1276.000000pt" viewBox="0 0 1280.000000 1276.000000"
 preserveAspectRatio="xMidYMid meet">
<metadata>
Created by potrace 1.15, written by Peter Selinger 2001-2017
</metadata>
<g transform="translate(0.000000,1276.000000) scale(0.100000,-0.100000)"
fill="#9c27b0" stroke="none">
<path d="M6327 12722 c-21 -32 -38 -43 -99 -66 -207 -75 -429 -286 -550 -522
-58 -113 -72 -159 -98 -314 -36 -211 -39 -257 -33 -495 6 -229 6 -230 -19
-290 -37 -87 -41 -124 -23 -201 39 -168 153 -351 329 -526 99 -99 130 -137
157 -193 l34 -69 3 -244 c4 -273 -2 -317 -54 -422 -97 -193 -371 -334 -769
-395 -55 -8 -194 -20 -310 -26 -150 -7 -229 -16 -275 -29 -195 -57 -410 -261
-532 -505 -83 -165 -105 -288 -115 -635 -6 -241 3 -376 39 -585 13 -80 22
-183 25 -310 5 -199 -2 -271 -46 -475 -34 -161 -42 -262 -50 -635 -9 -392 -11
-407 -71 -488 -66 -90 -348 -256 -920 -542 -162 -81 -325 -158 -363 -171 -37
-12 -170 -46 -295 -74 -125 -28 -249 -62 -277 -75 -51 -23 -197 -45 -301 -45
-127 0 -294 48 -629 180 -219 86 -317 116 -423 126 -37 4 -76 13 -87 20 -29
18 -296 84 -340 84 -49 0 -97 -47 -118 -116 -8 -27 -31 -76 -51 -109 -52 -85
-61 -124 -61 -260 1 -134 23 -252 81 -437 18 -60 38 -136 43 -169 16 -99 61
-160 144 -196 110 -49 622 -67 822 -29 144 27 291 77 423 146 64 33 119 60
124 60 4 0 8 -21 8 -47 0 -85 29 -379 40 -408 6 -16 26 -46 45 -67 19 -21 73
-96 119 -167 92 -139 159 -208 243 -249 46 -23 57 -35 88 -93 19 -36 38 -82
42 -102 7 -31 38 -59 268 -244 438 -350 619 -479 816 -582 149 -78 259 -115
431 -147 186 -34 264 -54 375 -98 51 -20 134 -43 185 -51 188 -31 214 -37 283
-70 39 -18 81 -45 94 -59 24 -26 24 -26 6 -66 -17 -37 -21 -40 -59 -40 -50 0
-228 21 -466 56 -337 49 -423 27 -617 -159 -182 -176 -297 -329 -332 -441 -27
-88 -33 -173 -23 -322 9 -123 12 -137 47 -208 80 -161 159 -165 445 -21 201
101 213 106 320 115 52 4 120 16 150 26 57 18 66 18 485 13 131 -2 240 5 480
30 171 17 334 36 363 42 30 6 156 50 280 99 285 110 280 109 557 175 202 49
233 59 260 84 33 32 73 51 109 51 45 0 123 -30 162 -63 24 -21 55 -37 81 -41
23 -4 72 -22 110 -40 80 -38 153 -61 243 -75 119 -19 634 -59 1115 -86 149 -8
285 -19 303 -24 18 -5 60 -27 95 -48 52 -31 73 -38 128 -41 74 -5 200 12 229
30 27 17 50 79 57 153 8 86 -15 156 -80 246 -30 41 -75 116 -102 167 -36 70
-73 121 -150 206 -56 63 -105 118 -109 124 -15 25 57 54 213 87 206 43 297 68
375 104 59 26 573 363 641 419 17 14 95 85 174 158 80 75 177 155 220 181 92
57 218 162 365 303 164 158 231 264 277 435 18 69 22 122 29 380 9 294 13 350
31 361 5 3 35 -10 67 -29 203 -123 419 -187 528 -158 23 6 72 31 110 56 l68
45 111 -2 c145 -2 173 11 231 106 34 56 95 116 119 116 3 0 43 18 89 40 77 36
88 46 160 134 43 52 111 127 152 165 l74 69 0 82 0 83 -85 -5 c-74 -4 -95 -9
-167 -45 -58 -29 -106 -63 -158 -113 -41 -39 -81 -69 -90 -68 -29 6 -49 76
-89 313 -55 330 -90 437 -166 504 -91 80 -147 68 -303 -67 -190 -165 -248
-199 -416 -242 -140 -35 -205 -68 -260 -132 -22 -26 -52 -50 -66 -53 -43 -9
-289 41 -314 64 -11 11 -55 32 -96 47 -151 54 -259 117 -540 314 -96 67 -218
151 -272 186 -63 41 -106 77 -123 102 -57 86 -140 368 -184 622 -40 232 -46
319 -46 625 1 299 1 301 42 585 58 396 67 523 59 845 -4 149 -11 305 -17 348
-14 105 -51 217 -101 302 -40 67 -71 101 -290 312 l-95 92 -144 36 c-232 58
-372 99 -579 170 -322 110 -370 125 -451 141 -208 39 -318 113 -372 250 -31
79 -39 197 -32 449 4 132 10 282 15 333 8 107 6 104 139 215 113 95 151 156
187 299 21 84 28 138 28 209 1 95 0 99 -43 182 l-43 86 16 70 c18 81 21 267 5
357 -27 152 -94 306 -208 475 -132 196 -136 201 -340 351 -109 81 -153 104
-228 121 -57 13 -65 20 -83 70 l-10 27 -263 0 -264 0 -26 -38z m-1214 -6744
c10 -8 31 -74 57 -178 46 -189 69 -261 118 -380 62 -150 74 -213 79 -438 6
-232 -6 -374 -42 -509 -60 -224 -206 -533 -335 -704 -155 -208 -247 -279 -361
-279 -131 0 -238 53 -687 344 l-209 137 -7 62 c-4 34 -9 77 -13 95 l-5 33 58
-5 c33 -3 112 -8 177 -11 110 -6 117 -5 117 13 0 12 -21 33 -57 58 l-56 39 74
13 c55 9 88 10 128 2 119 -22 199 -5 387 85 85 41 124 67 171 113 173 170 272
428 318 827 12 109 35 526 35 658 0 29 4 37 18 37 10 0 26 -6 35 -12z m3478
-1323 c66 -102 240 -274 344 -343 178 -117 465 -235 754 -308 l33 -9 -152
-130 c-186 -159 -264 -216 -355 -262 -78 -40 -351 -133 -389 -133 -45 0 -58
23 -71 124 -4 28 -16 73 -27 100 -19 49 -36 77 -177 284 -147 217 -210 426
-226 752 -7 137 3 243 29 305 l17 40 84 -170 c46 -94 107 -206 136 -250z
m-7964 -310 c63 -32 143 -115 143 -148 0 -37 -74 -121 -135 -155 -27 -14 -68
10 -110 68 -37 52 -85 143 -85 163 0 23 87 97 113 97 13 0 46 -11 74 -25z"/>
</g>
</svg>
